# xmcd
#
# Track frame offsets:
#	150
#	13531
#	36380
#	63139
#	77505
#	98191
#	113352
#	135562
#	156008
#	168324
#	180139
#	194705
#	206236
#	218852
#	234132
#	242457
#	258459
#	273069
#	293786
#	313390
#
# Disc length: 4403 seconds
#
# Revision: 0
# Processed by: cddbd v1.5.2PL0 Copyright (c) Steve Scherf et al.
# Submitted via: audiograbber 1.83.01
#
DISCID=0a113114
DTITLE=Gastmann, Herolds Quartett - Über Wolken weit
DYEAR=2013
DGENRE=Gospel
TTITLE0=Singt mit uns
TTITLE1=Über Wolken weit
TTITLE2=Preis dir
TTITLE3=Haus des Herrn
TTITLE4=Abendmahl
TTITLE5=Ein Leidenskreuz
TTITLE6=Sing ein Halleluja
TTITLE7=Just a closer walk
TTITLE8=Welch ein Land
TTITLE9=Der Erste, den ich seh
TTITLE10=Auf höhern Grund
TTITLE11=Just a little talk with Jesus
TTITLE12=Bald erscheint jener Tag
TTITLE13=In dem Vaterhaus
TTITLE14=Am Kreuz - Prolog
TTITLE15=Am Kreuz ist noch Raum noch für dich 
TTITLE16=Herr, ich stehe vor dir
TTITLE17=Du bist mir wertvoll
TTITLE18=Ein Bettler saß
TTITLE19=Ich bete an die Macht der Liebe
EXTD=(c) cap-music.de
EXTT0=
EXTT1=
EXTT2=
EXTT3=
EXTT4=
EXTT5=
EXTT6=
EXTT7=
EXTT8=
EXTT9=
EXTT10=
EXTT11=
EXTT12=
EXTT13=
EXTT14=
EXTT15=
EXTT16=
EXTT17=
EXTT18=
EXTT19=
PLAYORDER=
